# xmcd CD database file
#
# Track frame offsets:
#	150
#	13390
#	27087
#	38700
#	54122
#	66470
#	82322
#	95542
#	109252
#	123410
#	140165
#
# Disc length: 2310 seconds
#
# Revision: 0
# Processed by: cddbd v1.5PL3 Copyright (c) Steve Scherf et al.
# Submitted via: CDex 1.51
#
DISCID=9d09040b
DTITLE=The Dalton Brothers - Ride Again
DYEAR=1991
DGENRE=Country
TTITLE0=It's Not Enough
TTITLE1=Tennessee
TTITLE2=Doctor Jones
TTITLE3=Whoever Lost You
TTITLE4=Another Sunday Morning
TTITLE5=The Wayward Wind
TTITLE6=You Don't Have To Be From Tennessee
TTITLE7=American Child
TTITLE8=Rodeo Cowboy
TTITLE9=Time Only Makes Me Love You More
TTITLE10=Medley: Cool Water, Tumbling Tumbleweeds, Blue Prairie, Red River Valley, Ridin' Down The Canyon
EXTD=YEAR: 1991
EXTT0=
EXTT1=
EXTT2=
EXTT3=
EXTT4=
EXTT5=
EXTT6=
EXTT7=
EXTT8=
EXTT9=
EXTT10=
PLAYORDER=
